<svg width="60" height="60" viewBox="0 0 60 60" fill="none" xmlns="http://www.w3.org/2000/svg">
<path d="M39.8182 40.0909C38.7273 40.0909 37.9091 39.5454 37.3636 38.7272L34.0909 33C32.7273 30 30 27.2727 27 25.6363L21.2727 22.3636C20.4545 22.0909 19.9091 21 19.9091 20.1818C19.9091 19.0909 20.4545 18.2727 21.2727 17.7273L27 14.4546C30 12.8182 32.7273 10.3637 34.3636 7.09092L37.6364 1.36365C37.9091 0.545468 39 1.33514e-05 39.8182 1.33514e-05C40.9091 1.33514e-05 41.7273 0.545468 42.2727 1.36365L45.5455 7.09092C47.1818 10.0909 49.9091 12.8182 52.9091 14.4546L58.6364 17.7273C59.4545 18.2727 60 19.0909 60 20.1818C60 21.2727 59.4545 22.0909 58.6364 22.6363L52.9091 25.9091C49.9091 27.5454 47.1818 30.2727 45.5455 33.2727L42.2727 39C41.7273 39.5454 40.9091 40.0909 39.8182 40.0909Z" fill="white"/>
<path d="M15 60C13.9091 60 13.0909 59.4545 12.5455 58.6364L10.9091 55.3636C9.54546 52.6363 7.36364 50.4545 4.63636 49.0909L1.36364 47.4545C0.545455 46.9091 0 45.8182 0 45C0 43.9091 0.545455 43.0909 1.36364 42.5454L4.63636 40.9091C7.36364 39.5454 9.54546 37.3636 10.9091 34.6363L12.5455 31.3636C13.6364 29.7273 16.3636 29.7273 17.4545 31.3636L19.0909 34.6363C20.4545 37.3636 22.6364 39.5454 25.3636 40.9091L28.6364 42.5454C29.4545 43.0909 30 43.9091 30 45C30 46.0909 29.4545 46.9091 28.6364 47.4545L25.6364 49.0909C22.9091 50.4545 20.7273 52.6363 19.3636 55.3636L17.7273 58.6364C16.9091 59.4545 16.0909 60 15 60Z" fill="white"/>
</svg>
