<svg width="68" height="58" viewBox="0 0 68 58" fill="none" xmlns="http://www.w3.org/2000/svg">
<path fill-rule="evenodd" clip-rule="evenodd" d="M25.1569 0.57907C33.6149 1.88877 40.5547 8.43724 42.7234 16.9503C43.1571 18.9148 43.374 20.661 43.374 22.8439C43.374 28.0827 39.2535 32.23 34.0486 32.23H29.4943C26.2413 32.23 23.8557 34.1946 23.8557 37.2505C23.8557 39.4333 22.7714 41.6162 21.0364 42.9259C19.952 43.799 18.434 44.2356 17.1327 44.2356C16.2653 44.2356 15.6146 44.0173 14.964 43.799C6.07236 40.743 9.03578e-08 32.23 0 22.6256C-6.16074e-08 16.0771 2.81931 9.74694 7.80732 5.59957C12.5785 1.4522 18.8677 -0.512343 25.1569 0.57907ZM15.3762 22.4062C16.3156 24.0874 15.7231 26.2167 14.0528 27.1623C12.3824 28.1077 10.2668 27.5113 9.32742 25.8301C8.388 24.1489 8.98053 22.0196 10.6508 21.0742C12.3212 20.1286 14.4368 20.7249 15.3762 22.4062ZM18.8149 16.2492C20.4852 15.3037 21.0777 13.1743 20.1382 11.4931C19.1987 9.81191 17.0832 9.21554 15.4129 10.1611C13.7426 11.1066 13.15 13.236 14.0894 14.9172C15.0289 16.5984 17.1445 17.1948 18.8149 16.2492ZM31.8373 13.0332C32.7768 14.7144 32.1843 16.8438 30.514 17.7894C28.8436 18.7348 26.7281 18.1385 25.7886 16.4573C24.8491 14.7761 25.4418 12.6467 27.1121 11.7012C28.7822 10.7557 30.898 11.3521 31.8373 13.0332Z" fill="white"/>
<path d="M65.9941 8.72673C64.1762 7.82795 62.151 8.37412 60.7043 10.3518C56.3491 16.1636 52.4993 23.2262 48.9642 31.4289C48.5997 32.2747 49.2107 33.1603 50.0826 33.4568C50.5717 33.6231 51.033 33.6849 51.5082 33.7992C51.8296 33.8765 52.129 34.0215 52.4229 34.1728C52.9645 34.4517 53.4948 34.688 54.0866 35.1551C54.5751 35.5868 55.0195 35.8527 55.5033 36.2668C55.5572 36.313 55.5725 36.3294 55.6086 36.3906C55.6701 36.4949 55.8739 36.5217 55.9633 36.6034C56.0256 36.6605 56.0844 36.7157 56.1403 36.7699C56.5677 37.184 57.3073 37.1729 57.6131 36.6624C62.1 29.1729 65.4928 21.6177 67.7916 13.9966C68.4034 11.8472 67.6278 9.67517 65.9941 8.72673Z" fill="white"/>
<path d="M53.7573 39.917C53.6069 39.7514 53.4686 39.5615 53.3217 39.3927C53.2062 39.2601 53.1234 39.0986 52.9922 38.9816C52.8598 38.8636 52.7109 38.75 52.5668 38.6351C52.2751 38.4025 51.9878 38.1573 51.6598 37.9794C51.3395 37.8056 50.9919 37.6392 50.5653 37.4941C49.9144 37.2728 49.2635 37.0515 48.6619 37.0153C48.3093 36.9941 47.8934 36.9899 47.4884 36.9828C46.9481 36.9734 46.4069 37.0281 45.8852 37.1688C45.7796 37.1973 45.674 37.2258 45.5683 37.2543C44.0955 37.6515 42.9053 38.3694 41.8137 39.4575C41.0786 40.2222 40.5993 41.2772 40.1325 42.3463C40.1147 42.3869 40.0895 42.6166 40.1009 42.6595C40.1031 42.6677 40.1088 42.6994 40.1059 42.7075C39.3155 44.9005 39.5742 46.6133 39.6494 48.3755C39.9219 50.8817 40.1321 52.4125 36.9791 54.6519C36.4761 54.986 36.2558 55.6407 36.4529 56.3813C36.6501 57.1219 37.1661 57.578 37.7677 57.6142C39.9901 57.8086 42.3472 57.7682 44.5565 57.1723C49.8955 55.7324 54.5939 51.8856 55.5709 46.6612C55.8638 44.7963 55.6043 43.0804 54.7432 41.3283C54.4657 40.9055 54.1537 40.3533 53.7573 39.917Z" fill="white"/>
</svg>
