<svg width="20" height="24" viewBox="0 0 20 24" fill="none" xmlns="http://www.w3.org/2000/svg">
<path d="M13.5254 3.84623C14.3532 2.81085 14.9149 1.42063 14.7667 0C13.555 0.0602542 12.0762 0.799443 11.2201 1.83564C10.4514 2.72298 9.77108 4.1714 9.94845 5.53249C11.3087 5.65048 12.6677 4.85256 13.5254 3.84623Z" fill="white"/>
<path d="M14.7513 5.79825C12.7759 5.68058 11.0963 6.91941 10.1529 6.91941C9.20903 6.91941 7.76442 5.85755 6.20196 5.88617C4.16831 5.91604 2.28132 7.06588 1.24934 8.89467C-0.873288 12.5531 0.689176 17.9799 2.75332 20.9596C3.75571 22.4337 4.96376 24.0568 6.55556 23.9985C8.05954 23.9395 8.64904 23.0246 10.4772 23.0246C12.304 23.0246 12.835 23.9985 14.4271 23.969C16.0781 23.9394 17.1102 22.4941 18.1126 21.0186C19.2625 19.3382 19.7333 17.7156 19.7629 17.6265C19.7333 17.597 16.5793 16.3871 16.5501 12.759C16.5203 9.72117 19.0263 8.2762 19.1442 8.18659C17.7291 6.09355 15.5179 5.85755 14.7513 5.79825Z" fill="white"/>
</svg>
